<svg xmlns="http://www.w3.org/2000/svg" xmlns:xlink="http://www.w3.org/1999/xlink" viewBox="0 0 509.13 110.87"><defs><style>.cls-1,.cls-10{fill:#fff;}.cls-2{fill:url(#Sfumatura_senza_nome_11);}.cls-3{fill:url(#Sfumatura_senza_nome_11-2);}.cls-4{fill:url(#Sfumatura_senza_nome_11-3);}.cls-5{fill:url(#Sfumatura_senza_nome_11-4);}.cls-6{fill:url(#Sfumatura_senza_nome_19);}.cls-7{fill:url(#Sfumatura_senza_nome_19-2);}.cls-8{fill:url(#Sfumatura_senza_nome_19-3);}.cls-9{fill:url(#Sfumatura_senza_nome_19-4);}.cls-10{opacity:0.1;}.cls-11{fill:url(#Sfumatura_senza_nome_11-5);}.cls-12{fill:url(#Sfumatura_senza_nome_19-5);}.cls-13{fill:url(#Sfumatura_senza_nome_19-6);}</style><linearGradient id="Sfumatura_senza_nome_11" x1="392.65" y1="99.79" x2="471.33" y2="99.79" gradientUnits="userSpaceOnUse"><stop offset="0" stop-color="#ea527e"/><stop offset="0.17" stop-color="#e7517e"/><stop offset="0.32" stop-color="#dc4f7e"/><stop offset="0.46" stop-color="#ca4b7f"/><stop offset="0.59" stop-color="#b04580"/><stop offset="0.73" stop-color="#903d80"/><stop offset="0.85" stop-color="#683482"/><stop offset="0.98" stop-color="#392983"/><stop offset="1" stop-color="#312783"/></linearGradient><linearGradient id="Sfumatura_senza_nome_11-2" x1="392.65" y1="51.4" x2="471.33" y2="51.4" xlink:href="#Sfumatura_senza_nome_11"/><linearGradient id="Sfumatura_senza_nome_11-3" x1="392.65" y1="26" x2="471.33" y2="26" xlink:href="#Sfumatura_senza_nome_11"/><linearGradient id="Sfumatura_senza_nome_11-4" x1="482.2" y1="98.88" x2="509.13" y2="98.88" xlink:href="#Sfumatura_senza_nome_11"/><linearGradient id="Sfumatura_senza_nome_19" x1="385.76" y1="10.36" x2="464.44" y2="10.36" gradientUnits="userSpaceOnUse"><stop offset="0" stop-color="#312783"/><stop offset="0" stop-color="#312783"/><stop offset="0.03" stop-color="#343287"/><stop offset="0.12" stop-color="#405793"/><stop offset="0.21" stop-color="#49779e"/><stop offset="0.32" stop-color="#5191a6"/><stop offset="0.43" stop-color="#57a5ad"/><stop offset="0.56" stop-color="#5cb3b1"/><stop offset="0.73" stop-color="#5ebcb4"/><stop offset="1" stop-color="#5fbeb5"/><stop offset="1" stop-color="#1d1d1b"/></linearGradient><linearGradient id="Sfumatura_senza_nome_19-2" x1="385.76" y1="84.18" x2="464.44" y2="84.18" xlink:href="#Sfumatura_senza_nome_19"/><linearGradient id="Sfumatura_senza_nome_19-3" x1="385.76" y1="73.44" x2="464.44" y2="73.44" xlink:href="#Sfumatura_senza_nome_19"/><linearGradient id="Sfumatura_senza_nome_19-4" x1="475.31" y1="86.9" x2="502.24" y2="86.9" xlink:href="#Sfumatura_senza_nome_19"/><linearGradient id="Sfumatura_senza_nome_11-5" x1="392.65" y1="37.35" x2="471.33" y2="37.35" xlink:href="#Sfumatura_senza_nome_11"/><linearGradient id="Sfumatura_senza_nome_19-5" x1="385.76" y1="5.29" x2="464.44" y2="5.29" xlink:href="#Sfumatura_senza_nome_19"/><linearGradient id="Sfumatura_senza_nome_19-6" x1="385.76" y1="43.4" x2="464.44" y2="43.4" xlink:href="#Sfumatura_senza_nome_19"/></defs><g id="Livello_2" data-name="Livello 2"><g id="Livello_1-2" data-name="Livello 1"><path class="cls-1" d="M154.75,90.33a47.43,47.43,0,0,1-.71-9.72V56.22a21.52,21.52,0,0,0-3.43-12.48,20.78,20.78,0,0,0-9.31-7.48A33.85,33.85,0,0,0,128,33.77a36.52,36.52,0,0,0-14.51,2.66,22.49,22.49,0,0,0-9.54,7.28,17.73,17.73,0,0,0-3.37,10.68h20.57a7.46,7.46,0,0,1,.65-3.37,4,4,0,0,1,1.95-1.82,7.78,7.78,0,0,1,3.17-.57c2.36,0,4,.67,5,2a9.2,9.2,0,0,1,1.45,5.46v2.63h-5.2q-15,0-22,5.42t-7,15A16.87,16.87,0,0,0,102,89a19.54,19.54,0,0,0,7.74,6.57,23.71,23.71,0,0,0,10.48,2.35,20.62,20.62,0,0,0,7.2-1.12,15.78,15.78,0,0,0,5-2.94,19.56,19.56,0,0,0,2.05-2.13,24.42,24.42,0,0,0,1.66,5h20.57v-1A22.11,22.11,0,0,1,154.75,90.33Zm-24.62-8.6a10.61,10.61,0,0,1-4.94,1,6,6,0,0,1-3.91-1.28,4.17,4.17,0,0,1-1.57-3.4,10,10,0,0,1,1.71-5.54c1.15-1.75,3.33-2.63,6.57-2.63h5.37v9c-.06.09-.1.18-.17.27A8.49,8.49,0,0,1,130.13,81.73Z"/><path class="cls-1" d="M195.85,79.07a3,3,0,0,0-1-2.34A10.06,10.06,0,0,0,191.34,75a71.79,71.79,0,0,0-7.08-1.8,48.82,48.82,0,0,1-10.91-3.74,21.63,21.63,0,0,1-7.91-6.32,15,15,0,0,1-2.95-9.36,17.55,17.55,0,0,1,3-9.89,21.34,21.34,0,0,1,8.8-7.34,32.22,32.22,0,0,1,14-2.77,38,38,0,0,1,14.63,2.57,22,22,0,0,1,9.51,7.14,17.62,17.62,0,0,1,3.34,10.69H195.23q0-3.37-1.55-4.92c-1-1-2.83-1.54-5.42-1.54a8.31,8.31,0,0,0-3.06.57,5.61,5.61,0,0,0-2.34,1.66,4.2,4.2,0,0,0-.89,2.74A3.61,3.61,0,0,0,183,55.22a8.38,8.38,0,0,0,3.17,1.92,27.75,27.75,0,0,0,5.37,1.31,63.64,63.64,0,0,1,11.63,3.08,21.8,21.8,0,0,1,9,6.06q3.48,4,3.49,10.91a16,16,0,0,1-3.34,9.88,22.13,22.13,0,0,1-9.52,6.94,37.94,37.94,0,0,1-14.56,2.55q-9,0-15.2-3.26a24.17,24.17,0,0,1-9.34-8.2,18.24,18.24,0,0,1-3.17-9.91h19.2A7.72,7.72,0,0,0,181,80.59,6.86,6.86,0,0,0,184.09,83a12.36,12.36,0,0,0,4.74.83,11.31,11.31,0,0,0,3.88-.57,5,5,0,0,0,2.35-1.66A4.22,4.22,0,0,0,195.85,79.07Z"/><path class="cls-1" d="M256.46,81c-.72,0-1.62.06-2.68.06a10.75,10.75,0,0,1-3.69-.51,3.14,3.14,0,0,1-1.85-1.75,8.83,8.83,0,0,1-.52-3.39V49.77h9.89V34.92h-9.89V19.55H227.16V34.92h-7.54V49.77h7.54V78.39A23.21,23.21,0,0,0,229.5,89.5a14.26,14.26,0,0,0,6.83,6.34,26.32,26.32,0,0,0,10.88,2,38.1,38.1,0,0,0,5.88-.43,31.68,31.68,0,0,0,5.32-1.35l0-15.3A14.56,14.56,0,0,1,256.46,81Z"/><path class="cls-1" d="M321.36,64.28A36.32,36.32,0,0,0,318,48a24.48,24.48,0,0,0-9.74-10.51,30,30,0,0,0-15.31-3.69q-10.11,0-16.8,4.32a26.67,26.67,0,0,0-10,11.59,38.54,38.54,0,0,0-3.32,16.14v2.11a30.08,30.08,0,0,0,3.77,14.77,28.56,28.56,0,0,0,11,11q7.23,4.17,17.51,4.17a32.58,32.58,0,0,0,15.39-3.37q6.38-3.37,9.23-7.37L310.45,75.3A14,14,0,0,1,304,79.93a22.93,22.93,0,0,1-7.57,1.31,14.58,14.58,0,0,1-7.06-1.6,10.64,10.64,0,0,1-4.48-4.6,13.1,13.1,0,0,1-.86-2.14h37.31Zm-20.11-4.57H283.82c.07-.47.14-.94.23-1.4a11.81,11.81,0,0,1,2.69-5.74q2-2.24,6-2.23a12.33,12.33,0,0,1,4.71.8,5.69,5.69,0,0,1,2.88,2.51,8.43,8.43,0,0,1,.92,4.4Z"/><path class="cls-1" d="M364.63,33.92a28.26,28.26,0,0,0-2.89-.15,13,13,0,0,0-9.05,3.49,19.41,19.41,0,0,0-4.08,5.34L348,34.92h-19.2v61.8h20.57v-38a7.35,7.35,0,0,1,3.91-3.46,18.87,18.87,0,0,1,7.05-1.11c.84,0,1.94.06,3.29.17s2.43.21,3.23.29l.34-20.11A9.86,9.86,0,0,0,364.63,33.92Z"/><polygon class="cls-1" points="79.95 13.55 72.58 13.55 62.59 13.55 45.37 68.38 28.16 13.55 18.16 13.55 10.8 13.55 0 13.55 0 96.72 21.54 96.72 21.54 80.73 19.48 39.72 38.39 96.72 45.31 96.72 45.44 96.72 52.36 96.72 71.27 39.72 69.21 80.73 69.21 96.72 90.75 96.72 90.75 13.55 79.95 13.55"/><polygon class="cls-2" points="464.44 99.53 404.96 99.53 393.26 99.53 393.26 110.11 399.01 110.11 411.86 110.11 471.33 110.11 471.33 89.47 464.44 89.47 464.44 99.53"/><path class="cls-3" d="M431.44,60.94l-12.31,18h14.15l37.71-55L443.4,64.13A46.38,46.38,0,0,1,431.44,60.94Z"/><path class="cls-4" d="M392.65,20.71V31.3h12.09a46.86,46.86,0,0,1-1.84-10.59Z"/><path class="cls-5" d="M505.41,89.13a12.26,12.26,0,0,0-3.2-2.25c0,.23,0,.46,0,.69a12.17,12.17,0,0,1-3.73,9.06,13.33,13.33,0,0,1-9.74,3.65,14.56,14.56,0,0,1-6.54-1.41,12,12,0,0,0,3.73,8.34,14.75,14.75,0,0,0,19.45,0,12.2,12.2,0,0,0,3.72-9.06A12.07,12.07,0,0,0,505.41,89.13Z"/><path class="cls-6" d="M403.43,10.58a46.32,46.32,0,0,1,3-10.58H385.76V20.71h6.89V10.58Z"/><polygon class="cls-7" points="464.44 89.47 464.44 78.89 433.28 78.89 426.02 89.47 464.44 89.47"/><path class="cls-8" d="M421.81,55.51a47,47,0,0,1-8.58-8.15l-26.86,38.5V99.53h6.89V96.44Z"/><path class="cls-9" d="M486,89.13a13.4,13.4,0,0,1,9.71-3.63,14.91,14.91,0,0,1,6.54,1.38,12,12,0,0,0-3.7-8.34,14.86,14.86,0,0,0-19.44,0,12.76,12.76,0,0,0,0,18.09,12.36,12.36,0,0,0,3.16,2.24c0-.24,0-.47,0-.72A12,12,0,0,1,486,89.13Z"/><polygon class="cls-10" points="413.23 47.36 413.23 47.36 424.43 31.3 413.23 47.36"/><path class="cls-11" d="M431.44,60.94a46.38,46.38,0,0,0,12,3.19L471,23.91V10.58H464.1v2.75Z"/><path class="cls-10" d="M431.44,60.94a46.38,46.38,0,0,0,12,3.19L471,23.91V10.58H464.1v2.75Z"/><path class="cls-4" d="M402.9,20.71a46.86,46.86,0,0,0,1.84,10.59h19.69l7.38-10.59Z"/><path class="cls-10" d="M402.9,20.71a46.86,46.86,0,0,0,1.84,10.59h19.69l7.38-10.59Z"/><path class="cls-12" d="M453.15,10.58h11V0H406.47a46.32,46.32,0,0,0-3,10.58Z"/><path class="cls-10" d="M453.15,10.58h11V0H406.47a46.32,46.32,0,0,0-3,10.58Z"/><path class="cls-13" d="M421.81,55.51,438.7,31.3H424.43l-11.2,16.06A47,47,0,0,0,421.81,55.51Z"/><path class="cls-10" d="M421.81,55.51,438.7,31.3H424.43l-11.2,16.06A47,47,0,0,0,421.81,55.51Z"/></g></g></svg>